<?xml version="1.0" encoding="utf-8"?>
<!-- Generator: Adobe Illustrator 17.0.0, SVG Export Plug-In . SVG Version: 6.00 Build 0)  -->
<!DOCTYPE svg PUBLIC "-//W3C//DTD SVG 1.1//EN" "http://www.w3.org/Graphics/SVG/1.1/DTD/svg11.dtd">
<svg version="1.1" xmlns="http://www.w3.org/2000/svg" xmlns:xlink="http://www.w3.org/1999/xlink" x="0px" y="0px" width="1024px"
	 height="432.177px" viewBox="0 0 1024 432.177" enable-background="new 0 0 1024 432.177" xml:space="preserve">
<g id="Layer_2">
	<rect x="-0.333" y="0.599" fill="#F2F2EF" width="1024" height="429.579"/>
	<ellipse fill="#FFFFFF" cx="480.237" cy="212.491" rx="3" ry="0"/>
</g>
<g id="Layer_1">
	<path fill="#231F20" d="M177.88,1621.445v-4736.262c0-2.287-1.08-3.462-2.922-3.462c-1.842,0-3.017,1.175-3.017,3.462v9.498h-4.829
		v-17.026h4.829v2.414c1.112-1.429,2.541-2.732,4.987-2.732c3.653,0,5.781,2.414,5.781,6.321v4737.787H177.88z M177.594-3124.219
		c-1.969,0-3.621-1.239-4.765-1.239c-0.984,0-1.366,0.54-1.81,1.556l-2.573-0.794c0.73-2.668,1.715-4.383,3.939-4.383
		c1.97,0,3.622,1.239,4.765,1.239c0.984,0,1.366-0.54,1.81-1.557l2.573,0.794C180.802-3125.935,179.818-3124.219,177.594-3124.219z"
		/>
	<path fill="none" stroke="#2A8D45" stroke-width="6" stroke-miterlimit="10" d="M180.991,97.25
		c64.107,0,116.076,51.969,116.076,116.076s-51.969,116.076-116.076,116.076"/>
	<text transform="matrix(1 0 0 1 48.9794 109.2127)" fill="#231F20" font-family="'GothamHTF-Medium'" font-size="34">1960</text>
	
		<line fill="none" stroke="#2A8D45" stroke-width="6" stroke-miterlimit="10" x1="297.066" y1="213.326" x2="616.662" y2="213.326"/>
	<g>
		<defs>
			<path id="SVGID_93_" d="M688.876,285.539c-39.882,0-72.214-32.331-72.214-72.214s32.331-72.214,72.214-72.214"/>
		</defs>
		<clipPath id="SVGID_2_">
			<use xlink:href="#SVGID_93_"  overflow="visible"/>
		</clipPath>
		<use xlink:href="#SVGID_93_"  overflow="visible" fill="none" stroke="#2A8D45" stroke-width="6" stroke-miterlimit="10"/>
	</g>
	<line fill="none" stroke="#231F20" stroke-width="3" stroke-miterlimit="10" x1="181.11" y1="330.054" x2="144.499" y2="330.054"/>
	<line fill="none" stroke="#231F20" stroke-width="3" stroke-miterlimit="10" x1="180.184" y1="97.25" x2="144.499" y2="97.25"/>
	<path fill="none" stroke="#231F20" stroke-width="3" stroke-miterlimit="10" d="M182.082,313.653"/>
	<text transform="matrix(1 0 0 1 51.7724 342.0169)" fill="#231F20" font-family="'GothamHTF-Medium'" font-size="34">1970</text>
</g>
</svg>
