<?xml version="1.0" encoding="utf-8"?>
<!-- Generator: Adobe Illustrator 17.0.0, SVG Export Plug-In . SVG Version: 6.00 Build 0)  -->
<!DOCTYPE svg PUBLIC "-//W3C//DTD SVG 1.1//EN" "http://www.w3.org/Graphics/SVG/1.1/DTD/svg11.dtd">
<svg version="1.1" xmlns="http://www.w3.org/2000/svg" xmlns:xlink="http://www.w3.org/1999/xlink" x="0px" y="0px" width="1024px"
	 height="423.042px" viewBox="0 0 1024 423.042" enable-background="new 0 0 1024 423.042" xml:space="preserve">
<g id="Layer_2">
	<rect y="0" fill="#F2F2EF" width="1024" height="423.042"/>
</g>
<g id="Layer_1">
	<path fill="none" stroke="#46276C" stroke-width="6" stroke-miterlimit="10" d="M181.597,104.694
		c112.664,0,203.997,91.332,203.997,203.997"/>
	<g>
		<text transform="matrix(1 0 0 1 37.31 117.6566)" fill="#231F20" font-family="'GothamHTF-Medium'" font-size="34">2000</text>
	</g>
	
		<line fill="none" stroke="#46276C" stroke-width="6" stroke-miterlimit="10" x1="382.573" y1="305.779" x2="556.824" y2="305.779"/>
	<g>
		<defs>
			<path id="SVGID_11_" d="M622.025,371.91c-39.882,0-72.214-32.331-72.214-72.214s32.331-72.214,72.214-72.214"/>
		</defs>
		<clipPath id="SVGID_2_">
			<use xlink:href="#SVGID_11_"  overflow="visible"/>
		</clipPath>
		<use xlink:href="#SVGID_11_"  overflow="visible" fill="none" stroke="#46276C" stroke-width="6" stroke-miterlimit="10"/>
	</g>
	
		<line fill="none" stroke="#231F20" stroke-width="3" stroke-miterlimit="10" x1="180.791" y1="104.694" x2="145.105" y2="104.694"/>
	<path fill="#231F20" d="M177.907,448.475v-4736.261c0-2.288-1.08-3.463-2.922-3.463c-1.842,0-3.017,1.175-3.017,3.463v9.497h-4.829
		v-17.026h4.829v2.414c1.112-1.429,2.541-2.731,4.987-2.731c3.653,0,5.781,2.414,5.781,6.321V448.475H177.907z M177.621-4297.189
		c-1.969,0-3.621-1.239-4.765-1.239c-0.984,0-1.366,0.54-1.81,1.557l-2.573-0.794c0.73-2.668,1.715-4.384,3.939-4.384
		c1.97,0,3.622,1.239,4.765,1.239c0.984,0,1.366-0.54,1.81-1.557l2.573,0.794C180.83-4298.905,179.845-4297.189,177.621-4297.189z"
		/>
</g>
</svg>
