<?xml version="1.0" encoding="utf-8"?>
<!-- Generator: Adobe Illustrator 17.0.0, SVG Export Plug-In . SVG Version: 6.00 Build 0)  -->
<!DOCTYPE svg PUBLIC "-//W3C//DTD SVG 1.1//EN" "http://www.w3.org/Graphics/SVG/1.1/DTD/svg11.dtd">
<svg version="1.1" xmlns="http://www.w3.org/2000/svg" xmlns:xlink="http://www.w3.org/1999/xlink" x="0px" y="0px" width="1024px"
	 height="1358.43px" viewBox="0 0 1024 1358.43" enable-background="new 0 0 1024 1358.43" xml:space="preserve">
<g id="Layer_2">
	<rect x="-0.333" y="-2" fill="#F2F2EF" width="1024" height="1358.43"/>
</g>
<g id="Layer_1">
	<path fill="#231F20" d="M177.88,3029.267v-4736.262c0-2.287-1.08-3.463-2.922-3.463c-1.842,0-3.017,1.175-3.017,3.463v9.497h-4.829
		v-17.026h4.829v2.414c1.112-1.429,2.541-2.732,4.987-2.732c3.653,0,5.781,2.414,5.781,6.321v4737.787H177.88z M177.594-1716.397
		c-1.969,0-3.621-1.239-4.765-1.239c-0.984,0-1.366,0.54-1.81,1.556l-2.573-0.794c0.73-2.668,1.715-4.383,3.939-4.383
		c1.97,0,3.622,1.239,4.765,1.239c0.984,0,1.366-0.54,1.81-1.557l2.573,0.795C180.802-1718.112,179.818-1716.397,177.594-1716.397z"
		/>
	<path fill="none" stroke="#4EAFE2" stroke-width="8" stroke-miterlimit="10" d="M181.788,283.202
		c96.688,0,175.069,78.381,175.069,175.069s-78.381,175.069-175.069,175.069"/>
	<path fill="none" stroke="#4CA1D8" stroke-width="8" stroke-miterlimit="10" d="M181.788,193.486
		c63.955,0,115.801,51.846,115.801,115.801s-51.846,115.801-115.801,115.801"/>
	<polyline fill="none" stroke="#4CA1D8" stroke-width="8" stroke-miterlimit="10" points="258.257,396.541 632.667,396.541 
		632.667,836 	"/>
	<polyline fill="none" stroke="#22587B" stroke-width="8" stroke-miterlimit="10" points="304.628,498.119 436.348,498.119 
		436.348,1023.425 	"/>
	<line fill="none" stroke="#3E8DCC" stroke-width="8" stroke-miterlimit="10" x1="469.59" y1="167.035" x2="641.266" y2="167.035"/>
	
		<line fill="none" stroke="#4EAFE2" stroke-width="8" stroke-miterlimit="10" x1="284.964" y1="1232.085" x2="284.964" y2="601.46"/>
	<text transform="matrix(1 0 0 1 57.8188 83.5225)" fill="#231F20" font-family="'GothamHTF-Medium'" font-size="34">1910</text>
	<text transform="matrix(1 0 0 1 50.7814 316.3267)" fill="#231F20" font-family="'GothamHTF-Medium'" font-size="34">1920</text>
	<text transform="matrix(1 0 0 1 50.611 549.1306)" fill="#231F20" font-family="'GothamHTF-Medium'" font-size="34">1930</text>
	<text transform="matrix(1 0 0 1 48.1286 781.9346)" fill="#231F20" font-family="'GothamHTF-Medium'" font-size="34">1940</text>
	<path fill="none" stroke="#3E8DCC" stroke-width="8" stroke-miterlimit="10" d="M181.518,49.854
		c223.891,0,405.39,181.499,405.39,405.39s-181.499,405.39-405.39,405.39"/>
	<path fill="none" stroke="#32709B" stroke-width="8" stroke-miterlimit="10" d="M181.518,179.258
		c114.263,0,206.891,92.628,206.891,206.891s-92.628,206.891-206.891,206.891"/>
	<path fill="none" stroke="#22587B" stroke-width="8" stroke-miterlimit="10" d="M181.518,243.449
		c86.76,0,157.092,70.332,157.092,157.092s-70.332,157.092-157.092,157.092"/>
	<g>
		<defs>
			<path id="SVGID_77_" d="M714.552,251.472c-39.882,0-72.214-32.331-72.214-72.214s32.331-72.214,72.214-72.214"/>
		</defs>
		<clipPath id="SVGID_2_">
			<use xlink:href="#SVGID_77_"  overflow="visible"/>
		</clipPath>
		<use xlink:href="#SVGID_77_"  overflow="visible" fill="none" stroke="#3E8DCC" stroke-width="8" stroke-miterlimit="10"/>
	</g>
	
		<line fill="none" stroke="#32709B" stroke-width="8" stroke-miterlimit="10" x1="386.409" y1="345.875" x2="699.547" y2="345.875"/>
	<g>
		<defs>
			<path id="SVGID_79_" d="M770.693,418.088c-39.882,0-72.214-32.331-72.214-72.214s32.331-72.214,72.214-72.214"/>
		</defs>
		<clipPath id="SVGID_4_">
			<use xlink:href="#SVGID_79_"  overflow="visible"/>
		</clipPath>
		<use xlink:href="#SVGID_79_"  overflow="visible" fill="none" stroke="#32709B" stroke-width="8" stroke-miterlimit="10"/>
	</g>
	<g>
		<defs>
			<path id="SVGID_81_" d="M357.177,1304.298c-39.882,0-72.214-32.331-72.214-72.214s32.331-72.214,72.214-72.214"/>
		</defs>
		<clipPath id="SVGID_6_">
			<use xlink:href="#SVGID_81_"  overflow="visible"/>
		</clipPath>
		<use xlink:href="#SVGID_81_"  overflow="visible" fill="none" stroke="#4EAFE2" stroke-width="8" stroke-miterlimit="10"/>
	</g>
	<g>
		<defs>
			<path id="SVGID_83_" d="M509.113,1096.228c-39.882,0-72.214-32.331-72.214-72.214c0-39.883,32.331-72.214,72.214-72.214"/>
		</defs>
		<clipPath id="SVGID_8_">
			<use xlink:href="#SVGID_83_"  overflow="visible"/>
		</clipPath>
		<use xlink:href="#SVGID_83_"  overflow="visible" fill="none" stroke="#22587B" stroke-width="8" stroke-miterlimit="10"/>
	</g>
	<g>
		<defs>
			<path id="SVGID_85_" d="M699.547,906.215c-39.882,0-72.214-32.331-72.214-72.214c0-39.883,32.331-72.214,72.214-72.214V906.215z"
				/>
		</defs>
		<clipPath id="SVGID_10_">
			<use xlink:href="#SVGID_85_"  overflow="visible"/>
		</clipPath>
	</g>
	<g>
		<defs>
			<path id="SVGID_87_" d="M704.822,905.424c-39.882,0-72.214-32.331-72.214-72.214c0-39.883,32.331-72.214,72.214-72.214"/>
		</defs>
		<clipPath id="SVGID_12_">
			<use xlink:href="#SVGID_87_"  overflow="visible"/>
		</clipPath>
		<use xlink:href="#SVGID_87_"  overflow="visible" fill="none" stroke="#4CA1D8" stroke-width="8" stroke-miterlimit="10"/>
	</g>
	
		<line fill="none" stroke="#231F20" stroke-width="3" stroke-miterlimit="10" x1="215.547" y1="769.972" x2="144.176" y2="769.972"/>
	
		<line fill="none" stroke="#231F20" stroke-width="3" stroke-miterlimit="10" x1="215.547" y1="537.168" x2="144.176" y2="537.168"/>
	
		<line fill="none" stroke="#231F20" stroke-width="3" stroke-miterlimit="10" x1="215.547" y1="304.364" x2="144.176" y2="304.364"/>
	<line fill="none" stroke="#231F20" stroke-width="3" stroke-miterlimit="10" x1="215.547" y1="71.56" x2="144.176" y2="71.56"/>
</g>
</svg>
