<?xml version="1.0" encoding="utf-8"?>
<!-- Generator: Adobe Illustrator 17.0.0, SVG Export Plug-In . SVG Version: 6.00 Build 0)  -->
<!DOCTYPE svg PUBLIC "-//W3C//DTD SVG 1.1//EN" "http://www.w3.org/Graphics/SVG/1.1/DTD/svg11.dtd">
<svg version="1.1" xmlns="http://www.w3.org/2000/svg" xmlns:xlink="http://www.w3.org/1999/xlink" x="0px" y="0px" width="1024px"
	 height="520px" viewBox="0 0 1024 520" enable-background="new 0 0 1024 520" xml:space="preserve">
<g id="Layer_2">
	<rect y="518.599" fill="#F2F2EF" width="1024" height="425.568"/>
	<rect y="1" fill="#F2F2EF" width="1024" height="520"/>
	<rect id="_x3C_Slice_x3E_" x="65" y="54.166" fill="none" width="32" height="36"/>
	<rect id="_x3C_Slice_x3E__2_" x="65" y="53.166" fill="none" width="32" height="37"/>
</g>
<g id="Layer_1">
	<path fill="none" stroke="#F16224" stroke-width="6" stroke-miterlimit="10" d="M178.737,356.192
		c140.916,0,255.151,114.235,255.151,255.151S319.653,866.495,178.737,866.495"/>
	<g>
		<path fill="#4EAFE2" d="M88.798,90.861V81.12h-9.846v9.742h-5.339V-69.334h5.339v145.53h9.846v-9.603h5.339v24.268H88.798z"/>
		<path fill="#231F20" d="M99.509,70.234v-4.68h5.547v4.68H99.509z M99.648,90.861V72.279h5.27v18.582H99.648z"/>
		<path fill="#231F20" d="M116.392,91.208c-2.6,0-5.512-0.867-7.974-2.808l2.253-3.467c2.011,1.456,4.125,2.219,5.859,2.219
			c1.526,0,2.219-0.555,2.219-1.387v-0.069c0-1.144-1.802-1.526-3.848-2.149c-2.6-0.763-5.547-1.976-5.547-5.582v-0.069
			c0-3.779,3.051-5.893,6.795-5.893c2.358,0,4.923,0.797,6.934,2.149l-2.011,3.64c-1.837-1.075-3.675-1.733-5.027-1.733
			c-1.283,0-1.942,0.554-1.942,1.283v0.069c0,1.04,1.768,1.525,3.779,2.219c2.6,0.867,5.617,2.115,5.617,5.512v0.069
			C123.499,89.336,120.414,91.208,116.392,91.208z"/>
		<path fill="#231F20" d="M133.206,91.174c-3.224,0-5.408-1.283-5.408-5.582v-8.806h-2.219v-4.507h2.219V67.53h5.27v4.749h4.368
			v4.507h-4.368v7.939c0,1.213,0.52,1.803,1.699,1.803c0.971,0,1.837-0.242,2.6-0.659v4.23
			C136.256,90.757,134.974,91.174,133.206,91.174z"/>
		<path fill="#231F20" d="M149.911,91.277c-5.755,0-10.019-4.264-10.019-9.603v-0.069c0-5.339,4.299-9.672,10.089-9.672
			c5.755,0,10.019,4.264,10.019,9.603v0.069C159.999,86.944,155.7,91.277,149.911,91.277z M154.799,81.605
			c0-2.739-1.976-5.131-4.888-5.131c-3.016,0-4.819,2.322-4.819,5.061v0.069c0,2.739,1.976,5.131,4.888,5.131
			c3.016,0,4.819-2.323,4.819-5.062V81.605z"/>
		<path fill="#231F20" d="M174.732,77.445c-3.501,0-5.651,2.115-5.651,6.553v6.864h-5.27V72.279h5.27v3.744
			c1.074-2.566,2.808-4.23,5.928-4.091v5.512H174.732z"/>
		<path fill="#231F20" d="M178.407,70.234v-4.68h5.547v4.68H178.407z M178.545,90.861V72.279h5.27v18.582H178.545z"/>
		<path fill="#231F20" d="M199.658,90.829v-1.978c-1.283,1.421-3.051,2.357-5.616,2.357c-3.502,0-6.379-2.011-6.379-5.686v-0.069
			c0-4.056,3.085-5.928,7.488-5.928c1.872,0,3.224,0.312,4.542,0.763v-0.312c0-2.184-1.352-3.398-3.987-3.398
			c-2.011,0-3.432,0.382-5.131,1.005l-1.317-4.022c2.046-0.901,4.056-1.49,7.211-1.49c5.755,0,8.286,2.981,8.286,8.008v10.749
			H199.658z M199.762,83.373c-0.901-0.416-2.08-0.693-3.363-0.693c-2.253,0-3.64,0.901-3.64,2.565v0.069
			c0,1.421,1.179,2.253,2.878,2.253c2.461,0,4.126-1.352,4.126-3.259V83.373z"/>
	</g>
	<path fill="#231F20" d="M41.99,125.292v-2.669c-1.283,1.733-3.051,3.016-5.79,3.016c-4.333,0-8.459-3.397-8.459-9.603v-0.069
		c0-6.206,4.056-9.603,8.459-9.603c2.808,0,4.542,1.283,5.79,2.774v-9.354h5.27v25.509H41.99z M42.059,115.966
		c0-3.085-2.045-5.131-4.507-5.131c-2.461,0-4.542,2.011-4.542,5.131v0.069c0,3.085,2.08,5.131,4.542,5.131
		c2.462,0,4.507-2.046,4.507-5.131V115.966z"/>
	<path fill="#231F20" d="M69.238,117.838H56.307c0.52,2.392,2.184,3.64,4.541,3.64c1.768,0,3.051-0.555,4.507-1.907l3.016,2.669
		c-1.733,2.149-4.229,3.467-7.592,3.467c-5.582,0-9.707-3.917-9.707-9.603v-0.069c0-5.304,3.779-9.672,9.187-9.672
		c6.206,0,9.048,4.819,9.048,10.088v0.069C69.307,117.041,69.273,117.353,69.238,117.838z M60.259,110.592
		c-2.184,0-3.606,1.56-4.022,3.952h7.939C63.865,112.187,62.478,110.592,60.259,110.592z"/>
	<path fill="#231F20" d="M73.467,125.292V99.984h5.27v25.308H73.467z"/>
	<path fill="#231F20" d="M100.212,125.292h-9.465v-24.268h9.465c7.627,0,12.897,5.235,12.897,12.065v0.069
		C113.109,119.988,107.839,125.292,100.212,125.292z M107.527,113.158c0-4.299-2.947-7.315-7.315-7.315h-4.126v14.63h4.126
		c4.368,0,7.315-2.947,7.315-7.246V113.158z"/>
	<path fill="#231F20" d="M117.407,104.664v-4.68h5.547v4.68H117.407z M117.546,125.292V106.71h5.27v18.582H117.546z"/>
	<path fill="#231F20" d="M134.29,125.638c-2.6,0-5.512-0.867-7.974-2.808l2.253-3.467c2.011,1.456,4.125,2.219,5.859,2.219
		c1.526,0,2.219-0.555,2.219-1.387v-0.069c0-1.144-1.802-1.526-3.848-2.149c-2.6-0.763-5.547-1.976-5.547-5.582v-0.069
		c0-3.779,3.051-5.893,6.795-5.893c2.358,0,4.923,0.797,6.934,2.149l-2.011,3.64c-1.837-1.075-3.675-1.733-5.027-1.733
		c-1.283,0-1.942,0.554-1.942,1.283v0.069c0,1.04,1.768,1.525,3.779,2.219c2.6,0.867,5.617,2.115,5.617,5.512v0.069
		C141.397,123.767,138.311,125.638,134.29,125.638z"/>
	<path fill="#231F20" d="M162.44,117.838h-12.931c0.52,2.392,2.184,3.64,4.541,3.64c1.768,0,3.051-0.555,4.507-1.907l3.016,2.669
		c-1.733,2.149-4.229,3.467-7.592,3.467c-5.582,0-9.708-3.917-9.708-9.603v-0.069c0-5.304,3.779-9.672,9.187-9.672
		c6.206,0,9.048,4.819,9.048,10.088v0.069C162.509,117.041,162.475,117.353,162.44,117.838z M153.461,110.592
		c-2.184,0-3.606,1.56-4.022,3.952h7.939C157.067,112.187,155.68,110.592,153.461,110.592z"/>
	<path fill="#231F20" d="M197.141,125.708c-5.755,0-10.019-4.264-10.019-9.603v-0.069c0-5.339,4.299-9.672,10.089-9.672
		c5.755,0,10.019,4.264,10.019,9.603v0.069C207.23,121.374,202.931,125.708,197.141,125.708z M202.03,116.035
		c0-2.739-1.976-5.131-4.888-5.131c-3.016,0-4.819,2.322-4.819,5.061v0.069c0,2.739,1.976,5.131,4.888,5.131
		c3.016,0,4.819-2.323,4.819-5.062V116.035z"/>
	<text transform="matrix(1 0 0 1 90.3196 143.6436)" fill="#231F20" font-family="'GothamHTF-Bold'" font-size="15.1429">1900-2014</text>
	<rect id="_x3C_Slice_x3E__3_" y="2.599" fill="none" width="1024" height="517"/>
	<path fill="#231F20" d="M177.907,4851.866V115.604c0-2.287-1.08-3.463-2.922-3.463c-1.842,0-3.017,1.175-3.017,3.463v9.497h-4.829
		v-17.026h4.829v2.414c1.112-1.429,2.541-2.732,4.987-2.732c3.653,0,5.781,2.414,5.781,6.321v4737.787H177.907z M177.621,106.202
		c-1.969,0-3.621-1.239-4.765-1.239c-0.984,0-1.366,0.54-1.81,1.556l-2.573-0.794c0.73-2.668,1.715-4.383,3.939-4.383
		c1.97,0,3.622,1.239,4.765,1.239c0.984,0,1.366-0.54,1.81-1.557l2.573,0.794C180.83,104.487,179.845,106.202,177.621,106.202z"/>
</g>
</svg>
