<?xml version="1.0" encoding="utf-8"?>
<!-- Generator: Adobe Illustrator 17.0.0, SVG Export Plug-In . SVG Version: 6.00 Build 0)  -->
<!DOCTYPE svg PUBLIC "-//W3C//DTD SVG 1.1//EN" "http://www.w3.org/Graphics/SVG/1.1/DTD/svg11.dtd">
<svg version="1.1" xmlns="http://www.w3.org/2000/svg" xmlns:xlink="http://www.w3.org/1999/xlink" x="0px" y="0px" width="1024px"
	 height="611.804px" viewBox="0 0 1024 611.804" enable-background="new 0 0 1024 611.804" xml:space="preserve">
<g id="Layer_2">
	<rect x="-0.333" y="0.599" fill="#F2F2EF" width="1024" height="609.205"/>
</g>
<g id="Layer_1">
	<path fill="#231F20" d="M177.88,3749.267V-986.994c0-2.287-1.08-3.463-2.922-3.463c-1.842,0-3.017,1.175-3.017,3.463v9.497h-4.829
		v-17.026h4.829v2.414c1.112-1.429,2.541-2.732,4.987-2.732c3.653,0,5.781,2.414,5.781,6.321v4737.787H177.88z M177.594-996.397
		c-1.969,0-3.621-1.239-4.765-1.239c-0.984,0-1.366,0.54-1.81,1.556l-2.573-0.794c0.73-2.668,1.715-4.383,3.939-4.383
		c1.97,0,3.622,1.239,4.765,1.239c0.984,0,1.366-0.54,1.81-1.557l2.573,0.794C180.802-998.112,179.818-996.397,177.594-996.397z"/>
	
		<line fill="none" stroke="#E5C02A" stroke-width="6" stroke-miterlimit="10" x1="422.834" y1="286.329" x2="632.667" y2="286.329"/>
	<line fill="none" stroke="#E5C02A" stroke-width="6" stroke-miterlimit="10" x1="259.087" y1="386.081" x2="468.92" y2="386.081"/>
	<path fill="none" stroke="#231F20" stroke-width="3" stroke-miterlimit="10" d="M182.207,47.077"/>
	<text transform="matrix(1 0 0 1 57.8193 181.3846)" fill="#231F20" font-family="'GothamHTF-Medium'" font-size="34">1910</text>
	<text transform="matrix(1 0 0 1 50.7814 414.1888)" fill="#231F20" font-family="'GothamHTF-Medium'" font-size="34">1920</text>
	<path fill="none" stroke="#E5C02A" stroke-width="6" stroke-miterlimit="10" d="M183.863,47.077
		c132.136,0,239.253,107.117,239.253,239.253S315.999,525.582,183.863,525.582"/>
	<path fill="none" stroke="#E5C02A" stroke-width="6" stroke-miterlimit="10" d="M183.863,310.857
		c41.545,0,75.223,33.679,75.223,75.223s-33.679,75.223-75.223,75.223"/>
	<path fill="none" stroke="#E5C02A" stroke-width="6" stroke-miterlimit="10" d="M704.88,358.543
		c-39.882,0-72.214-32.331-72.214-72.214s32.331-72.214,72.214-72.214"/>
	<g>
		<defs>
			<path id="SVGID_89_" d="M531.959,458.295c-39.882,0-72.214-32.331-72.214-72.214s32.331-72.214,72.214-72.214"/>
		</defs>
		<clipPath id="SVGID_2_">
			<use xlink:href="#SVGID_89_"  overflow="visible"/>
		</clipPath>
		<use xlink:href="#SVGID_89_"  overflow="visible" fill="none" stroke="#E5C02A" stroke-width="6" stroke-miterlimit="10"/>
	</g>
	
		<line fill="none" stroke="#231F20" stroke-width="3" stroke-miterlimit="10" x1="217.892" y1="402.226" x2="146.522" y2="402.226"/>
	
		<line fill="none" stroke="#231F20" stroke-width="3" stroke-miterlimit="10" x1="217.892" y1="169.422" x2="146.522" y2="169.422"/>
</g>
</svg>
