<?xml version="1.0" encoding="utf-8"?>
<!-- Generator: Adobe Illustrator 17.0.0, SVG Export Plug-In . SVG Version: 6.00 Build 0)  -->
<!DOCTYPE svg PUBLIC "-//W3C//DTD SVG 1.1//EN" "http://www.w3.org/Graphics/SVG/1.1/DTD/svg11.dtd">
<svg version="1.1" xmlns="http://www.w3.org/2000/svg" xmlns:xlink="http://www.w3.org/1999/xlink" x="0px" y="0px" width="1024px"
	 height="680.218px" viewBox="0 0 1024 680.218" enable-background="new 0 0 1024 680.218" xml:space="preserve">
<g id="Layer_2">
	<rect x="-0.333" y="-2" fill="#F2F2EF" width="1024" height="680.218"/>
</g>
<g id="Layer_1">
	<path fill="#231F20" d="M177.88,1137.267v-4736.262c0-2.287-1.08-3.462-2.922-3.462c-1.842,0-3.017,1.175-3.017,3.462v9.497h-4.829
		v-17.026h4.829v2.414c1.112-1.429,2.541-2.732,4.987-2.732c3.653,0,5.781,2.414,5.781,6.321v4737.787H177.88z M177.594-3608.397
		c-1.969,0-3.621-1.239-4.765-1.239c-0.984,0-1.366,0.54-1.81,1.556l-2.573-0.794c0.73-2.668,1.715-4.383,3.939-4.383
		c1.97,0,3.622,1.239,4.765,1.239c0.984,0,1.366-0.54,1.81-1.557l2.573,0.794C180.802-3610.112,179.818-3608.397,177.594-3608.397z"
		/>
	<path fill="none" stroke="#DA1E3A" stroke-width="6" stroke-miterlimit="10" d="M182.497,69.321
		c56.516,0,102.331,45.815,102.331,102.331s-45.815,102.331-102.331,102.331"/>
	<path fill="none" stroke="#DA1E3A" stroke-width="6" stroke-miterlimit="10" d="M182.497,234.045
		c102.986,0,186.472,83.486,186.472,186.472s-83.486,186.472-186.472,186.472"/>
	<g>
		<text transform="matrix(1 0 0 1 49.863 67.7664)" fill="#231F20" font-family="'GothamHTF-Medium'" font-size="34">1980</text>
	</g>
	<line fill="none" stroke="#DA1E3A" stroke-width="6" stroke-miterlimit="10" x1="284.495" y1="176.37" x2="502.077" y2="176.37"/>
	<g>
		<defs>
			<path id="SVGID_71_" d="M570.859,248.584c-39.882,0-72.214-32.331-72.214-72.214s32.331-72.214,72.214-72.214"/>
		</defs>
		<clipPath id="SVGID_2_">
			<use xlink:href="#SVGID_71_"  overflow="visible"/>
		</clipPath>
		<use xlink:href="#SVGID_71_"  overflow="visible" fill="none" stroke="#DA1E3A" stroke-width="6" stroke-miterlimit="10"/>
	</g>
	
		<line fill="none" stroke="#DA1E3A" stroke-width="6" stroke-miterlimit="10" x1="368.969" y1="437.357" x2="604.091" y2="437.357"/>
	<g>
		<defs>
			<path id="SVGID_73_" d="M673.772,509.571c-39.882,0-72.214-32.331-72.214-72.214s32.331-72.214,72.214-72.214"/>
		</defs>
		<clipPath id="SVGID_4_">
			<use xlink:href="#SVGID_73_"  overflow="visible"/>
		</clipPath>
		<use xlink:href="#SVGID_73_"  overflow="visible" fill="none" stroke="#DA1E3A" stroke-width="6" stroke-miterlimit="10"/>
	</g>
	
		<line fill="none" stroke="#231F20" stroke-width="3" stroke-miterlimit="10" x1="217.375" y1="287.607" x2="146.005" y2="287.607"/>
	<line fill="none" stroke="#231F20" stroke-width="3" stroke-miterlimit="10" x1="217.375" y1="54.803" x2="146.005" y2="54.803"/>
	<g>
		<text transform="matrix(1 0 0 1 48.9792 300.5703)" fill="#231F20" font-family="'GothamHTF-Medium'" font-size="34">1990</text>
	</g>
</g>
</svg>
